<?xml version="1.0" encoding="iso-8859-1"?>
<!-- Generator: Adobe Illustrator 19.0.0, SVG Export Plug-In . SVG Version: 6.00 Build 0)  -->
<svg version="1.1" id="Capa_1" xmlns="http://www.w3.org/2000/svg" xmlns:xlink="http://www.w3.org/1999/xlink" x="0px" y="0px"
	 viewBox="0 0 512.002 512.002" style="enable-background:new 0 0 512.002 512.002;" xml:space="preserve">
<polyline style="fill:#6F9CFF;" points="421.454,380.843 414.572,145.702 169.495,145.702 162.613,380.843 "/>
<polyline style="fill:#8ABCFF;" points="63.884,209.949 163.279,358.081 166.683,241.78 95.494,179.647 "/>
<path style="fill:#FF5D5D;" d="M83.691,197.41L83.691,197.41c-19.617,19.617-51.422,19.617-71.038-0.001L10,194.756l71.038-71.038
	l2.653,2.653C103.308,145.988,103.308,177.793,83.691,197.41z"/>
<polygon style="fill:#FFA25D;" points="412.457,73.453 171.61,73.453 169.495,145.702 414.572,145.702 "/>
<path style="fill:#FFE094;" d="M403.014,438.551H181.053c-17.492,0-31.671-14.18-31.671-31.671l0,0
	c0-17.492,14.18-31.671,31.671-31.671h221.961c17.491,0,31.671,14.18,31.671,31.671l0,0
	C434.685,424.371,420.505,438.551,403.014,438.551z"/>
<path d="M384.581,119.802c-0.65,0-1.311-0.07-1.95-0.2c-0.64-0.13-1.27-0.32-1.87-0.57c-0.61-0.25-1.19-0.56-1.729-0.92
	c-0.551-0.36-1.061-0.78-1.521-1.24c-1.86-1.86-2.93-4.44-2.93-7.08c0-0.65,0.069-1.3,0.189-1.95c0.13-0.64,0.33-1.27,0.58-1.87
	c0.25-0.6,0.55-1.18,0.92-1.73c0.36-0.54,0.78-1.05,1.24-1.52c0.46-0.46,0.97-0.87,1.521-1.24c0.539-0.36,1.119-0.67,1.729-0.92
	c0.6-0.25,1.23-0.44,1.87-0.57c1.29-0.26,2.61-0.26,3.9,0c0.64,0.13,1.27,0.32,1.869,0.57c0.61,0.25,1.19,0.56,1.73,0.92
	c0.55,0.37,1.06,0.78,1.52,1.24c0.46,0.47,0.881,0.98,1.24,1.52c0.36,0.55,0.67,1.13,0.92,1.73c0.25,0.6,0.45,1.23,0.58,1.87
	c0.13,0.65,0.19,1.3,0.19,1.95c0,2.64-1.07,5.21-2.931,7.08c-0.46,0.46-0.97,0.88-1.52,1.24c-0.54,0.36-1.12,0.67-1.73,0.92
	c-0.6,0.25-1.229,0.44-1.869,0.57C385.891,119.732,385.23,119.802,384.581,119.802z"/>
<path d="M190.551,416.882c-0.66,0-1.31-0.07-1.96-0.2c-0.64-0.13-1.271-0.32-1.87-0.57c-0.6-0.25-1.18-0.56-1.73-0.92
	c-0.54-0.36-1.051-0.78-1.52-1.24c-0.46-0.46-0.88-0.97-1.24-1.52c-0.359-0.54-0.67-1.12-0.92-1.73c-0.25-0.6-0.439-1.23-0.569-1.87
	c-0.131-0.64-0.2-1.3-0.2-1.95c0-2.64,1.069-5.21,2.93-7.07c0.47-0.461,0.98-0.88,1.52-1.25c0.55-0.36,1.13-0.671,1.73-0.921
	c0.6-0.25,1.23-0.44,1.87-0.57c1.29-0.26,2.62-0.26,3.91,0c0.64,0.13,1.269,0.32,1.87,0.57c0.6,0.25,1.18,0.56,1.72,0.921
	c0.55,0.37,1.06,0.789,1.52,1.25c1.87,1.86,2.94,4.43,2.94,7.07c0,0.65-0.07,1.31-0.2,1.95c-0.13,0.64-0.319,1.27-0.569,1.87
	c-0.25,0.61-0.561,1.19-0.921,1.73c-0.369,0.55-0.779,1.06-1.25,1.52c-0.46,0.46-0.97,0.88-1.52,1.24
	c-0.54,0.36-1.12,0.67-1.72,0.92c-0.601,0.25-1.23,0.44-1.87,0.57C191.851,416.812,191.201,416.882,190.551,416.882z"/>
<path style="fill:#FF5D5D;" d="M313.002,222.353c27.958-48.425-69.896-48.425-41.938,0c-27.959-48.425-76.886,36.319-20.969,36.319
	c-55.917,0-6.99,84.745,20.969,36.319c-27.959,48.426,69.896,48.426,41.938,0c27.958,48.426,76.886-36.319,20.969-36.319
	C389.888,258.672,340.961,173.927,313.002,222.353z"/>
<circle style="fill:#FFE094;" cx="292.03" cy="258.671" r="34.542"/>
<path d="M475.607,99.797c-7.861,0-15.645,2.607-21.919,7.341L424.1,129.459l-1.346-46.006h9.573c5.522,0,10-4.477,10-10
	s-4.478-10-10-10H151.74c-5.522,0-10,4.477-10,10s4.478,10,10,10h9.573l-4.007,136.87l-50.627-44.186
	c4.773-19.745-0.532-41.452-15.918-56.838l-2.653-2.653c-3.905-3.905-10.236-3.903-14.142,0.001L2.929,187.685
	C1.054,189.561,0,192.105,0,194.757c0,2.652,1.054,5.196,2.93,7.071l2.652,2.652c11.376,11.376,26.502,17.642,42.59,17.642
	c0.001,0,0,0,0.001,0c3.782,0,7.51-0.346,11.149-1.024l93.868,139.893l-0.449,15.339c-8.212,7.616-13.359,18.493-13.359,30.549
	c0,22.978,18.693,41.671,41.671,41.671h221.961c22.978,0,41.671-18.694,41.671-41.671c0-12.056-5.147-22.933-13.358-30.548
	l-0.994-33.954l60.709-28.429c12.732-5.963,20.96-18.9,20.96-32.96V136.191C512.002,116.124,495.676,99.797,475.607,99.797z
	 M402.745,83.453l1.529,52.249H179.792l0.466-15.905h164.344c5.522,0,10-4.477,10-10s-4.478-10-10-10H180.844l0.479-16.344H402.745z
	 M48.172,202.122c-8.634,0-16.853-2.702-23.69-7.705l56.214-56.215c11.468,15.725,10.108,37.952-4.075,52.136
	C69.021,197.937,58.918,202.122,48.172,202.122z M78.584,213.91c4.392-2.577,8.483-5.733,12.179-9.429l0,0
	c2.847-2.847,5.349-5.911,7.506-9.139l58.281,50.866l-2.353,80.39L78.584,213.91z M403.014,428.551H181.053
	c-11.949,0-21.671-9.722-21.671-21.671s9.722-21.671,21.671-21.671h221.961c8.344,0,15.602,4.741,19.222,11.671h-191.71
	c-5.522,0-10,4.477-10,10s4.478,10,10,10h191.71C418.616,423.81,411.358,428.551,403.014,428.551z M403.014,365.208H181.053
	c-2.735,0-5.41,0.266-8,0.771l6.154-210.277h225.652l6.155,210.278C408.424,365.474,405.75,365.208,403.014,365.208z
	 M492.002,280.988c0,6.333-3.706,12.162-9.442,14.848l-52.865,24.755l-4.877-166.62l40.917-30.868
	c2.825-2.132,6.332-3.306,9.873-3.306c9.04,0,16.395,7.354,16.395,16.395L492.002,280.988L492.002,280.988z"/>
<path d="M343.124,199.165c-5.489-1.998-10.96-2.29-16.162-0.992c-1.477-5.155-4.465-9.746-8.939-13.501
	c-13.842-11.615-38.13-11.618-51.978,0c-4.475,3.755-7.463,8.346-8.94,13.5c-5.202-1.297-10.673-1.005-16.161,0.992
	c-16.982,6.181-29.127,27.216-25.989,45.014c1.015,5.753,3.497,10.636,7.222,14.492c-3.725,3.857-6.207,8.739-7.222,14.493
	c-3.138,17.798,9.007,38.833,25.989,45.014c5.489,1.997,10.959,2.289,16.161,0.992c1.478,5.154,4.466,9.746,8.94,13.5
	c6.922,5.809,16.455,8.713,25.988,8.713s19.067-2.904,25.989-8.713c4.475-3.755,7.462-8.346,8.939-13.5
	c5.201,1.296,10.674,1.005,16.162-0.993c16.983-6.181,29.127-27.216,25.989-45.014c-1.015-5.753-3.497-10.636-7.222-14.492
	c3.725-3.856,6.207-8.739,7.222-14.492C372.251,226.382,360.107,205.346,343.124,199.165z M267.491,258.672
	c0-13.533,11.01-24.542,24.542-24.542c13.533,0,24.543,11.009,24.543,24.542s-11.01,24.543-24.543,24.543
	C278.501,283.214,267.491,272.205,267.491,258.672z M278.9,199.993c6.26-5.252,20.008-5.251,26.266,0
	c3.89,3.264,3.85,8.67-0.112,16.077c-4.12-1.262-8.493-1.942-13.021-1.942s-8.9,0.68-13.021,1.942
	C275.05,208.664,275.01,203.259,278.9,199.993z M247.783,217.958c4.781-1.738,9.443,1.006,13.881,8.157
	c-6.376,5.952-11.008,13.749-13.035,22.532c-8.395-0.273-13.097-2.94-13.978-7.942C233.232,232.659,240.105,220.754,247.783,217.958
	z M247.784,299.385c-7.679-2.795-14.553-14.7-13.134-22.747c0.882-5.001,5.583-7.669,13.978-7.942
	c2.027,8.783,6.66,16.58,13.035,22.532C257.226,298.378,252.563,301.124,247.784,299.385z M305.166,317.35
	c-6.258,5.253-20.006,5.253-26.266,0c-3.89-3.264-3.85-8.669,0.112-16.078c4.12,1.262,8.493,1.942,13.021,1.942
	s8.9-0.68,13.021-1.942C309.016,308.681,309.056,314.086,305.166,317.35z M336.283,299.385c-4.773,1.736-9.441-1.005-13.88-8.157
	c6.376-5.952,11.009-13.75,13.036-22.532c8.395,0.273,13.096,2.94,13.978,7.942C350.836,284.685,343.962,296.59,336.283,299.385z
	 M349.417,240.707c-0.882,5.001-5.583,7.669-13.978,7.942c-2.028-8.783-6.66-16.58-13.036-22.532
	c4.439-7.152,9.106-9.893,13.88-8.157C343.962,220.754,350.836,232.66,349.417,240.707z"/>
<g>
</g>
<g>
</g>
<g>
</g>
<g>
</g>
<g>
</g>
<g>
</g>
<g>
</g>
<g>
</g>
<g>
</g>
<g>
</g>
<g>
</g>
<g>
</g>
<g>
</g>
<g>
</g>
<g>
</g>
</svg>
