<?xml version="1.0" encoding="iso-8859-1"?>
<!-- Generator: Adobe Illustrator 19.0.0, SVG Export Plug-In . SVG Version: 6.00 Build 0)  -->
<svg version="1.1" id="Capa_1" xmlns="http://www.w3.org/2000/svg" xmlns:xlink="http://www.w3.org/1999/xlink" x="0px" y="0px"
	 viewBox="0 0 511.999 511.999" style="enable-background:new 0 0 511.999 511.999;" xml:space="preserve">
<polygon style="fill:#6F9CFF;" points="156.308,395.169 163.003,450.035 348.996,450.035 355.69,395.169 "/>
<polygon style="fill:#8ABCFF;" points="368.997,286.117 143.001,286.117 156.308,395.169 355.69,395.169 "/>
<path style="fill:#FF7E7E;" d="M339.278,501.999H172.72c-17.101,0-31.796-12.137-35.028-28.93l-4.433-23.034h245.48l-4.433,23.034
	C371.075,489.863,356.38,501.999,339.278,501.999z"/>
<path d="M313.469,337.708c-2.63,0-5.21-1.06-7.07-2.92c-0.46-0.47-0.88-0.98-1.24-1.53c-0.36-0.54-0.67-1.12-0.92-1.72
	c-0.25-0.61-0.44-1.23-0.57-1.87c-0.13-0.65-0.2-1.3-0.2-1.96c0-0.65,0.07-1.31,0.2-1.95s0.32-1.27,0.57-1.87s0.56-1.19,0.92-1.73
	c0.36-0.55,0.78-1.06,1.24-1.52s0.98-0.88,1.52-1.24c0.55-0.36,1.13-0.67,1.73-0.92s1.23-0.44,1.87-0.57c1.29-0.26,2.62-0.26,3.91,0
	c0.64,0.13,1.27,0.32,1.87,0.57s1.18,0.56,1.72,0.92c0.55,0.36,1.06,0.78,1.53,1.24c0.46,0.46,0.87,0.97,1.24,1.52
	c0.36,0.54,0.67,1.13,0.92,1.73s0.44,1.23,0.57,1.87c0.13,0.64,0.2,1.3,0.2,1.95c0,0.66-0.07,1.31-0.2,1.96
	c-0.13,0.64-0.32,1.26-0.57,1.87c-0.25,0.6-0.56,1.18-0.92,1.72c-0.37,0.55-0.78,1.06-1.24,1.53c-0.47,0.46-0.98,0.87-1.53,1.24
	c-0.54,0.36-1.12,0.67-1.72,0.92s-1.23,0.44-1.87,0.57C314.779,337.648,314.129,337.708,313.469,337.708z"/>
<path style="fill:#78E648;" d="M293.185,152.227c4.598-2.907,9.442-5.448,14.479-7.647c3.135-9.626,5.057-19.843,5.057-30.43
	c0-57.521-56.722-104.151-56.722-104.151s-56.722,46.63-56.722,104.15c0,10.587,1.922,20.804,5.057,30.43
	c5.037,2.199,9.881,4.74,14.479,7.647c22.013,13.918,39.561,39.478,36.922,65.853c0.173,0.146,0.263,0.22,0.263,0.22
	s0.09-0.074,0.263-0.22C253.624,191.704,271.172,166.145,293.185,152.227z"/>
<path style="fill:#00D87E;" d="M428.701,142.441c-31.777,24.425-58.957,56.665-92.529,78.158
	c-22.468,14.384-51.551,19.198-77.047,10.107c-10.981-30.561,8.538-62.345,34.06-78.48
	C331.412,128.059,386.619,129.156,428.701,142.441z"/>
<path style="fill:#00C974;" d="M83.297,142.441c31.777,24.425,58.957,56.665,92.529,78.158
	c22.468,14.384,51.551,19.198,77.047,10.107c10.981-30.561-8.538-62.345-34.06-78.48
	C180.586,128.059,125.379,129.156,83.297,142.441z"/>
<path d="M255.999,71.038c-0.65,0-1.31-0.07-1.95-0.2s-1.27-0.32-1.87-0.57c-0.61-0.25-1.19-0.56-1.73-0.92
	c-0.55-0.36-1.06-0.78-1.52-1.24s-0.88-0.97-1.24-1.52c-0.36-0.54-0.67-1.12-0.92-1.73c-0.25-0.6-0.44-1.23-0.57-1.87
	s-0.2-1.3-0.2-1.95s0.07-1.31,0.2-1.96c0.13-0.63,0.32-1.26,0.57-1.87c0.25-0.6,0.56-1.18,0.92-1.72c0.36-0.55,0.78-1.06,1.24-1.52
	s0.97-0.88,1.52-1.25c0.54-0.36,1.12-0.67,1.73-0.92c0.6-0.25,1.23-0.44,1.87-0.57c1.29-0.26,2.61-0.26,3.9,0
	c0.64,0.13,1.27,0.32,1.88,0.57c0.6,0.25,1.18,0.56,1.72,0.92c0.55,0.37,1.06,0.79,1.52,1.25s0.88,0.97,1.24,1.52
	c0.36,0.54,0.67,1.12,0.92,1.72c0.25,0.61,0.45,1.24,0.57,1.87c0.13,0.65,0.2,1.31,0.2,1.96c0,0.65-0.07,1.31-0.2,1.95
	c-0.12,0.64-0.32,1.27-0.57,1.87c-0.25,0.61-0.56,1.19-0.92,1.73c-0.36,0.55-0.78,1.06-1.24,1.52s-0.97,0.88-1.52,1.24
	c-0.54,0.36-1.12,0.67-1.72,0.92c-0.61,0.25-1.24,0.44-1.88,0.57S256.649,71.038,255.999,71.038z"/>
<path d="M438.549,140.702c-0.648-3.67-3.283-6.675-6.837-7.797c-23.056-7.279-48.862-10.69-72.669-9.606
	c-13.225,0.603-25.809,2.567-37.452,5.809c0.752-5.035,1.131-10.031,1.131-14.958c0-61.538-57.907-109.849-60.372-111.875
	c-3.69-3.034-9.011-3.034-12.701,0c-2.465,2.026-60.372,50.337-60.372,111.875c0,4.927,0.379,9.923,1.131,14.958
	c-11.643-3.241-24.227-5.206-37.452-5.809c-23.803-1.081-49.613,2.328-72.669,9.606c-3.554,1.122-6.189,4.128-6.837,7.797
	c-0.648,3.67,0.799,7.396,3.753,9.668c12.98,9.976,25.555,21.651,37.717,32.941c17.35,16.106,35.29,32.762,55.515,45.71
	c9.722,6.224,20.253,10.71,31.062,13.388l33.128,33.707h-91.623c-2.863,0-5.589,1.228-7.487,3.371s-2.786,4.998-2.439,7.84
	l18.633,152.707h-18.45c-2.983,0-5.811,1.332-7.71,3.632s-2.673,5.329-2.109,8.258l4.433,23.035
	c4.131,21.462,22.992,37.04,44.848,37.04H339.28c21.856,0,40.717-15.578,44.848-37.04l4.433-23.035
	c0.564-2.929-0.21-5.958-2.109-8.258c-1.9-2.3-4.727-3.632-7.711-3.632h-18.449l18.633-152.707c0.347-2.842-0.541-5.697-2.439-7.84
	c-1.898-2.144-4.624-3.371-7.487-3.371h-91.623l33.128-33.708c10.809-2.679,21.341-7.164,31.062-13.388
	c20.225-12.948,38.165-29.603,55.515-45.71c12.162-11.29,24.737-22.965,37.717-32.941
	C437.75,148.099,439.197,144.372,438.549,140.702z M209.277,114.149c0-40.981,32.631-76.984,46.722-90.617
	c14.096,13.639,46.723,49.639,46.723,90.617c0,7.538-1.118,15.337-3.326,23.238c-4.035,1.941-7.893,4.072-11.555,6.387
	c-8.216,5.194-15.623,11.639-21.841,18.913V100.02c0-5.523-4.477-10-10-10c-5.523,0-10,4.477-10,10v62.667
	c-6.218-7.274-13.626-13.719-21.842-18.914c-3.661-2.315-7.519-4.445-11.554-6.386C210.395,129.486,209.277,121.688,209.277,114.149
	z M245.999,243.09v16.066l-13.796-14.037C236.857,244.788,241.469,244.115,245.999,243.09z M265.999,243.09
	c4.53,1.024,9.142,1.698,13.796,2.029l-13.796,14.038V243.09z M128.527,168.655c-7.698-7.146-15.558-14.443-23.665-21.458
	c29.072-5.949,65.19-6.562,94.983,6.317c0.314,0.158,0.637,0.299,0.966,0.423c4.375,1.943,8.609,4.181,12.66,6.742
	c20.545,12.99,37.085,37.939,31.35,62.086c-20.463,5.607-44.385,1.715-63.602-10.587
	C162.503,200.197,145.231,184.161,128.527,168.655z M364.486,471.178c-2.322,12.064-12.923,20.82-25.208,20.82H172.72
	c-12.285,0-22.886-8.756-25.208-20.82l-2.145-11.144h17.594c0.014,0,0.028,0.001,0.042,0.001h185.993c0.014,0,0.028,0,0.042-0.001
	h17.594L364.486,471.178z M171.857,440.035l-4.254-34.866h176.793l-4.254,34.866H171.857z M346.836,385.169H165.162l-5.791-47.457
	h114.118c5.523,0,10-4.477,10-10s-4.477-10-10-10H156.931l-2.635-21.596h203.406L346.836,385.169z M383.471,168.655
	c-16.704,15.507-33.976,31.542-52.691,43.523c-19.216,12.302-43.138,16.195-63.601,10.586c-5.736-24.147,10.805-49.096,31.35-62.085
	c4.044-2.557,8.272-4.792,12.64-6.734c0.342-0.128,0.676-0.274,1.001-0.439c29.79-12.872,65.901-12.257,94.967-6.31
	C399.029,154.212,391.17,161.508,383.471,168.655z"/>
<g>
</g>
<g>
</g>
<g>
</g>
<g>
</g>
<g>
</g>
<g>
</g>
<g>
</g>
<g>
</g>
<g>
</g>
<g>
</g>
<g>
</g>
<g>
</g>
<g>
</g>
<g>
</g>
<g>
</g>
</svg>
