<?xml version="1.0" encoding="iso-8859-1"?>
<!-- Generator: Adobe Illustrator 19.0.0, SVG Export Plug-In . SVG Version: 6.00 Build 0)  -->
<svg version="1.1" id="Capa_1" xmlns="http://www.w3.org/2000/svg" xmlns:xlink="http://www.w3.org/1999/xlink" x="0px" y="0px"
	 viewBox="0 0 512.002 512.002" style="enable-background:new 0 0 512.002 512.002;" xml:space="preserve">
<path style="fill:#00D87E;" d="M143.749,144.606c26.94,13.366,55.272,29.625,77.627,47.665c0.084,0.068,0.168,0.136,0.252,0.204
	c-3.961-15.869-6.617-33.364-6.617-51.745c0-5.609,0.248-11.136,0.704-16.559c-37.702-54.868-84.112-101.575-84.112-101.575
	s-26.701,38.108,7.683,112.79C140.696,138.448,142.187,141.523,143.749,144.606z"/>
<path style="fill:#009C5B;" d="M296.989,140.73c0,18.381-2.657,35.876-6.617,51.745c0.084-0.068,0.168-0.136,0.252-0.204
	c22.355-18.039,50.687-34.299,77.627-47.665c1.562-3.083,3.053-6.159,4.463-9.22c34.384-74.682,7.683-112.79,7.683-112.79
	s-46.41,46.707-84.112,101.575C296.741,129.594,296.989,135.121,296.989,140.73z"/>
<g>
	<path style="fill:#00D87E;" d="M215.715,124.171c-37.702-54.868-84.112-101.575-84.112-101.575s-26.701,38.108,7.683,112.79
		c1.41,3.062,2.9,6.137,4.463,9.22"/>
	<path style="fill:#00D87E;" d="M457.423,106.977c0,0-105.714,36.001-166.799,85.294c-0.084,0.068-0.168,0.136-0.252,0.204
		c-4.446,17.814-10.535,33.578-16.354,46.246h44.85c5.988,0,11.637,1.449,16.617,4.015c23.794-12.319,47.952-26.75,67.527-42.547
		C464.097,150.897,457.423,106.977,457.423,106.977z"/>
</g>
<path style="fill:#009C5B;" d="M193.132,238.721h44.85c-5.819-12.668-11.908-28.432-16.354-46.246
	c-0.084-0.068-0.168-0.136-0.252-0.204c-61.086-49.293-166.799-85.294-166.799-85.294s-6.674,43.92,54.411,93.213
	c19.575,15.796,43.733,30.228,67.527,42.547C181.495,240.17,187.144,238.721,193.132,238.721z"/>
<path style="fill:#6F9CFF;" d="M273.476,285.281H154.474c-82.409,48.737-82.409,167.982,0,216.719h119.002
	C355.885,453.263,355.885,334.018,273.476,285.281z"/>
<path style="fill:#8ABCFF;" d="M357.526,502h-84.051c82.41-48.737,82.41-167.982,0-216.719h84.051
	C439.936,334.018,439.936,453.263,357.526,502z"/>
<path d="M228.47,478.08c-0.65,0-1.309-0.07-1.95-0.2c-0.64-0.13-1.27-0.32-1.87-0.57c-0.609-0.25-1.189-0.56-1.729-0.921
	c-0.55-0.36-1.061-0.78-1.521-1.24c-0.46-0.46-0.88-0.97-1.239-1.52c-0.36-0.54-0.67-1.12-0.92-1.73c-0.25-0.6-0.44-1.23-0.57-1.87
	c-0.13-0.64-0.2-1.3-0.2-1.95c0-0.65,0.07-1.31,0.2-1.96c0.13-0.63,0.32-1.26,0.57-1.87c0.25-0.6,0.56-1.18,0.92-1.72
	c0.359-0.55,0.779-1.06,1.239-1.52c0.46-0.46,0.971-0.88,1.521-1.25c0.54-0.36,1.12-0.66,1.729-0.91c0.601-0.25,1.23-0.45,1.87-0.57
	c1.29-0.26,2.61-0.27,3.91,0c0.63,0.12,1.26,0.32,1.87,0.57c0.6,0.25,1.18,0.55,1.72,0.91c0.55,0.37,1.061,0.79,1.52,1.25
	c0.47,0.46,0.88,0.97,1.25,1.52c0.359,0.54,0.67,1.12,0.92,1.72c0.25,0.61,0.439,1.24,0.57,1.87c0.13,0.65,0.189,1.31,0.189,1.96
	s-0.059,1.31-0.189,1.95c-0.131,0.64-0.32,1.27-0.57,1.87c-0.25,0.61-0.561,1.19-0.92,1.73c-0.37,0.55-0.78,1.06-1.25,1.52
	c-0.46,0.46-0.971,0.88-1.52,1.24c-0.54,0.36-1.12,0.671-1.72,0.921c-0.61,0.25-1.24,0.44-1.87,0.57
	C229.78,478.01,229.12,478.08,228.47,478.08z"/>
<path style="fill:#FFBAB8;" d="M355.194,285.281H156.806v-10.235c0-20.062,16.264-36.326,36.326-36.326h125.736
	c20.062,0,36.326,16.264,36.326,36.326V285.281z"/>
<path style="fill:#78E648;" d="M274.017,238.721c11.002-23.953,22.971-58.976,22.971-97.991C296.989,68.53,256,10,256,10
	s-40.989,58.53-40.989,130.73c0,39.015,11.969,74.038,22.971,97.991H274.017z"/>
<path d="M256,94.78c-0.65,0-1.311-0.07-1.95-0.2c-0.64-0.12-1.27-0.32-1.87-0.57c-0.61-0.25-1.189-0.56-1.73-0.92
	c-0.551-0.36-1.061-0.78-1.52-1.24c-0.46-0.46-0.88-0.97-1.24-1.52c-0.37-0.54-0.67-1.12-0.92-1.73c-0.25-0.6-0.45-1.23-0.569-1.87
	c-0.131-0.64-0.2-1.3-0.2-1.95c0-0.65,0.069-1.31,0.2-1.95c0.119-0.64,0.319-1.27,0.569-1.87c0.25-0.61,0.55-1.19,0.92-1.73
	c0.36-0.55,0.78-1.06,1.24-1.52s0.97-0.88,1.52-1.24c0.54-0.36,1.119-0.67,1.73-0.92c0.601-0.25,1.23-0.45,1.87-0.57
	c1.29-0.26,2.61-0.26,3.9,0c0.64,0.12,1.27,0.32,1.88,0.57c0.6,0.25,1.18,0.56,1.72,0.92c0.55,0.36,1.06,0.78,1.52,1.24
	c0.461,0.46,0.881,0.97,1.24,1.52c0.36,0.54,0.67,1.12,0.92,1.73c0.25,0.6,0.45,1.23,0.58,1.87c0.13,0.64,0.19,1.3,0.19,1.95
	c0,0.65-0.06,1.31-0.19,1.95s-0.33,1.27-0.58,1.87c-0.25,0.61-0.56,1.19-0.92,1.73c-0.359,0.55-0.779,1.06-1.24,1.52
	c-0.46,0.461-0.97,0.88-1.52,1.24c-0.54,0.36-1.12,0.67-1.72,0.92c-0.61,0.25-1.24,0.45-1.88,0.57
	C257.31,94.71,256.649,94.78,256,94.78z"/>
<path d="M365.193,278.235v-3.188c0-11.736-4.387-22.466-11.606-30.638c22.052-12.142,40.746-24.367,55.705-36.437
	c64.81-52.299,58.325-100.473,58.018-102.498c-0.445-2.927-2.164-5.507-4.695-7.044c-2.531-1.537-5.613-1.873-8.415-0.92
	c-2.244,0.764-30.51,10.477-65.852,26.46c26.087-68.915,1.381-105.484,0.239-107.113c-1.699-2.425-4.385-3.972-7.335-4.225
	c-2.956-0.252-5.861,0.814-7.948,2.915c-1.677,1.688-36.625,37.008-70.613,82.541c-10.576-53.405-37.101-91.83-38.498-93.825
	C262.319,1.591,259.263,0,256,0s-6.319,1.591-8.191,4.264c-1.397,1.995-27.922,40.42-38.498,93.825
	c-33.988-45.533-68.936-80.853-70.613-82.541c-2.088-2.101-4.988-3.164-7.948-2.915c-2.95,0.253-5.636,1.8-7.335,4.225
	c-1.141,1.629-25.848,38.198,0.24,107.113c-35.343-15.982-63.609-25.695-65.853-26.46c-2.802-0.954-5.883-0.619-8.415,0.92
	c-2.531,1.538-4.25,4.117-4.695,7.044c-0.308,2.025-6.792,50.199,58.018,102.498c14.959,12.07,33.653,24.295,55.705,36.437
	c-7.219,8.172-11.606,18.902-11.606,30.638v3.188c-40.222,24.96-64.14,67.877-64.14,115.406c0,48.535,24.94,92.261,66.716,116.967
	c1.542,0.912,3.3,1.393,5.091,1.393h203.053c1.791,0,3.549-0.481,5.091-1.393c41.775-24.706,66.716-68.432,66.716-116.967
	C429.333,346.112,405.416,303.195,365.193,278.235z M166.807,275.281v-0.234c0-14.516,11.81-26.326,26.325-26.326h125.736
	c14.516,0,26.325,11.81,26.325,26.326v0.234H166.807z M396.731,192.408c-15.988,12.902-36.708,26.094-61.634,39.248
	c-5.053-1.896-10.522-2.934-16.229-2.934h-29.714c3.58-9.061,7.092-19.322,10.042-30.494
	c45.998-36.187,117.112-65.215,147.219-76.594C443.302,136.834,432.566,163.491,396.731,192.408z M377.169,40.463
	c0.927,3.275,1.782,7.203,2.358,11.772c2.006,15.916,0.877,42.536-15.896,78.967c-0.888,1.927-1.825,3.894-2.799,5.877
	c-18.809,9.454-38.201,20.303-55.824,32.213c1.255-9.193,1.982-18.752,1.982-28.563c0-4.658-0.16-9.257-0.462-13.787
	C332.255,90.002,361.881,56.854,377.169,40.463z M256,29.32c11.489,20.79,30.989,63.184,30.989,111.41
	c0,34.641-10.049,66.108-19.468,87.991H266V124.763c0-5.523-4.478-10-10-10c-5.523,0-10,4.477-10,10v103.958h-1.521
	c-9.419-21.883-19.468-53.351-19.468-87.991C225.011,92.503,244.513,50.107,256,29.32z M148.37,131.204
	c-16.395-35.608-17.789-61.792-16.072-77.487c0.569-5.205,1.51-9.626,2.537-13.252c15.282,16.381,44.889,49.505,70.637,86.478
	c-0.301,4.53-0.462,9.129-0.462,13.787c0,9.81,0.728,19.37,1.982,28.562c-17.623-11.91-37.016-22.759-55.825-32.213
	C150.194,135.097,149.257,133.13,148.37,131.204z M68.821,133.212c-1.598-4.347-2.635-8.25-3.302-11.607
	c30.045,11.348,101.166,40.362,147.285,76.623c2.949,11.171,6.462,21.432,10.041,30.492h-29.714c-5.707,0-11.176,1.038-16.229,2.934
	c-24.926-13.153-45.646-26.346-61.634-39.248C86.257,168.997,73.997,147.295,68.821,133.212z M270.679,492h-113.41
	c-34.244-21.295-54.602-57.865-54.602-98.359c0-40.495,20.357-77.064,54.602-98.359h30.747
	c46.562,28.941,66.31,84.928,48.042,137.129c-1.824,5.213,0.923,10.917,6.136,12.742c1.093,0.383,2.207,0.564,3.303,0.564
	c4.131,0,7.997-2.58,9.439-6.7c10.089-28.829,10.234-60.638,0.408-89.569c-7.114-20.946-18.898-39.287-34.653-54.167h49.99
	c34.244,21.295,54.604,57.864,54.604,98.359C325.283,434.136,304.924,470.705,270.679,492z M354.731,492h-51.449
	c26.704-25.286,42.001-60.347,42.001-98.359s-15.297-73.074-42.001-98.359h51.449c34.244,21.295,54.602,57.865,54.602,98.359
	C409.333,434.135,388.976,470.705,354.731,492z"/>
<g>
</g>
<g>
</g>
<g>
</g>
<g>
</g>
<g>
</g>
<g>
</g>
<g>
</g>
<g>
</g>
<g>
</g>
<g>
</g>
<g>
</g>
<g>
</g>
<g>
</g>
<g>
</g>
<g>
</g>
</svg>
