<?xml version="1.0" encoding="iso-8859-1"?>
<!-- Generator: Adobe Illustrator 19.0.0, SVG Export Plug-In . SVG Version: 6.00 Build 0)  -->
<svg version="1.1" id="Capa_1" xmlns="http://www.w3.org/2000/svg" xmlns:xlink="http://www.w3.org/1999/xlink" x="0px" y="0px"
	 viewBox="0 0 512 512" style="enable-background:new 0 0 512 512;" xml:space="preserve">
<path style="fill:#78E648;" d="M364.788,199.712c19.171,0,34.712-15.541,34.712-34.712s-15.541-34.712-34.712-34.712"/>
<g>
	<path style="fill:#00C974;" d="M231.355,51.838c-4.618-2.273-9.814-3.55-15.308-3.55c-19.171,0-34.712,15.541-34.712,34.712
		s15.541,34.712,34.712,34.712c5.494,0,10.69-1.277,15.308-3.549"/>
	<path style="fill:#00C974;" d="M280.645,274.89V126.508c0-18.288,12.48-33.662,29.388-38.069v-39.1
		C310.033,27.613,292.42,10,270.694,10l0,0c-21.727,0-39.339,17.613-39.339,39.339V274.89H280.645z"/>
</g>
<rect id="SVGCleanerId_0" x="112.5" y="274.89" style="fill:#FFC766;" width="287" height="40"/>
<path d="M399.5,324.89h-287c-5.523,0-10-4.477-10-10v-40c0-5.523,4.477-10,10-10h287c5.522,0,10,4.477,10,10v40
	C409.5,320.413,405.022,324.89,399.5,324.89z M122.5,304.89h267v-20h-267V304.89z"/>
<g>
	<rect id="SVGCleanerId_0_1_" x="112.5" y="274.89" style="fill:#FFC766;" width="287" height="40"/>
</g>
<path style="fill:#78E648;" d="M231.355,274.89v-93.464c0-21.726-17.613-39.339-39.339-39.339l0,0
	c-21.727,0-39.339,17.613-39.339,39.339v93.464H231.355z"/>
<path style="fill:#00C974;" d="M310.033,88.439v-39.1C310.033,27.613,292.42,10,270.694,10l0,0
	c-21.727,0-39.339,17.613-39.339,39.339V274.89"/>
<path style="fill:#00D87E;" d="M359.324,274.89V126.508c0-21.726-17.613-39.339-39.339-39.339l0,0
	c-21.727,0-39.339,17.613-39.339,39.339V274.89H359.324z"/>
<path style="fill:#FFA25D;" d="M165.18,502h181.64c12.47,0,22.73-9.82,23.28-22.28l6.91-156.24l0.382-8.59H134.605l7.025,158.65"/>
<path style="fill:#FFC766;" d="M300.28,314.89L141.63,473.54l0.27,6.18c0.55,12.46,10.81,22.28,23.28,22.28h33.32l178.51-178.52
	l0.382-8.59L300.28,314.89L300.28,314.89z"/>
<path d="M336.64,432.94c-2.63,0-5.21-1.07-7.07-2.93c-1.869-1.86-2.93-4.44-2.93-7.07c0-0.65,0.061-1.31,0.191-1.96
	c0.13-0.63,0.319-1.26,0.569-1.87c0.25-0.6,0.561-1.18,0.92-1.72c0.37-0.55,0.78-1.06,1.25-1.52c2.32-2.33,5.771-3.39,9.021-2.74
	c0.64,0.13,1.27,0.32,1.87,0.57s1.189,0.56,1.73,0.92c0.551,0.37,1.06,0.79,1.52,1.25s0.88,0.97,1.24,1.52
	c0.359,0.54,0.67,1.12,0.92,1.72c0.25,0.61,0.44,1.24,0.569,1.87c0.13,0.65,0.2,1.31,0.2,1.96c0,2.63-1.07,5.21-2.93,7.07
	c-0.46,0.46-0.97,0.88-1.52,1.24c-0.54,0.36-1.13,0.67-1.73,0.92c-0.601,0.25-1.23,0.44-1.87,0.57
	C337.95,432.87,337.29,432.94,336.64,432.94z"/>
<path d="M165.35,404.09c-0.65,0-1.31-0.06-1.95-0.19s-1.27-0.32-1.87-0.57c-0.61-0.25-1.19-0.56-1.73-0.92
	c-0.55-0.37-1.06-0.78-1.52-1.24c-0.46-0.47-0.88-0.98-1.24-1.52c-0.36-0.55-0.67-1.13-0.92-1.73s-0.45-1.23-0.57-1.87
	c-0.13-0.65-0.2-1.3-0.2-1.96c0-0.65,0.07-1.31,0.2-1.95c0.12-0.64,0.32-1.27,0.57-1.87s0.56-1.19,0.92-1.73s0.78-1.06,1.24-1.52
	s0.97-0.88,1.52-1.24c0.54-0.36,1.12-0.67,1.73-0.92c0.6-0.25,1.23-0.44,1.87-0.57c3.25-0.65,6.7,0.41,9.02,2.73
	c0.46,0.46,0.88,0.98,1.24,1.52c0.36,0.54,0.67,1.13,0.92,1.73s0.45,1.23,0.57,1.87c0.13,0.64,0.2,1.3,0.2,1.95
	c0,0.66-0.07,1.31-0.2,1.96c-0.12,0.64-0.32,1.27-0.57,1.87s-0.56,1.18-0.92,1.73c-0.36,0.54-0.78,1.05-1.24,1.52
	C170.56,403.03,167.98,404.09,165.35,404.09z"/>
<path d="M319.979,147.15c-0.649,0-1.3-0.06-1.949-0.19c-0.641-0.13-1.271-0.32-1.87-0.57c-0.601-0.25-1.181-0.559-1.73-0.92
	c-0.54-0.37-1.06-0.78-1.52-1.25c-0.46-0.46-0.88-0.97-1.24-1.52c-0.36-0.54-0.67-1.12-0.92-1.72c-0.25-0.61-0.44-1.23-0.57-1.87
	c-0.13-0.65-0.2-1.3-0.2-1.96c0-0.65,0.07-1.31,0.2-1.95s0.32-1.27,0.57-1.87c0.25-0.6,0.56-1.191,0.92-1.73
	c0.36-0.55,0.78-1.06,1.24-1.52s0.979-0.88,1.52-1.24c0.55-0.36,1.13-0.67,1.73-0.92s1.229-0.44,1.87-0.57
	c1.289-0.26,2.619-0.26,3.909,0c0.641,0.13,1.27,0.32,1.87,0.57c0.601,0.25,1.181,0.56,1.721,0.92c0.55,0.36,1.06,0.78,1.52,1.24
	c0.47,0.46,0.88,0.97,1.25,1.52c0.36,0.54,0.67,1.13,0.92,1.73c0.25,0.6,0.44,1.23,0.57,1.87s0.189,1.3,0.189,1.95
	c0,0.66-0.06,1.31-0.189,1.96c-0.13,0.64-0.32,1.26-0.57,1.87c-0.25,0.6-0.56,1.18-0.92,1.72c-0.37,0.55-0.78,1.06-1.25,1.52
	c-0.46,0.46-0.97,0.88-1.52,1.25c-0.54,0.36-1.12,0.67-1.721,0.92c-0.6,0.25-1.229,0.441-1.87,0.57
	C321.29,147.09,320.64,147.15,319.979,147.15z"/>
<path d="M399.5,264.89h-30.176v-55.407c22.532-2.281,40.176-21.36,40.176-44.483c0-23.249-17.836-42.409-40.543-44.518
	c-2.98-24.358-23.78-43.288-48.924-43.312V49.34c0-27.206-22.134-49.34-49.34-49.34c-23.57,0-43.333,16.614-48.194,38.746
	c-2.119-0.305-4.272-0.458-6.453-0.458c-24.654,0-44.712,20.058-44.712,44.712s20.058,44.712,44.712,44.712
	c1.789,0,3.559-0.103,5.308-0.309v14.378c-8.206-6.089-18.359-9.695-29.339-9.695c-27.206,0-49.339,22.133-49.339,49.339v83.464
	H112.5c-5.523,0-10,4.477-10,10v40c0,5.523,4.477,10,10,10h12.538l6.871,155.271c0.789,17.855,15.403,31.84,33.271,31.84h181.64
	c17.868,0,32.481-13.985,33.27-31.838l6.869-155.272H399.5c5.522,0,10-4.477,10-10v-40C409.5,269.367,405.022,264.89,399.5,264.89z
	 M389.5,165c0,12.077-8.709,22.158-20.176,24.294v-48.588C380.791,142.842,389.5,152.923,389.5,165z M349.324,126.508V264.89h-19.34
	v-90.481c0-5.523-4.478-10-10-10s-10,4.477-10,10v90.481h-19.339V126.508c0-16.178,13.161-29.339,29.339-29.339
	C336.162,97.169,349.324,110.331,349.324,126.508z M270.694,20c16.178,0,29.339,13.162,29.339,29.339v32.046
	c-17.295,7.677-29.388,25.014-29.388,45.123V264.89h-29.291V114.347c0.002-0.121,0.002-0.243,0-0.365V52.018
	c0.002-0.122,0.002-0.243,0-0.365v-2.314C241.354,33.162,254.516,20,270.694,20z M216.047,107.712
	c-13.626,0-24.712-11.086-24.712-24.712s11.086-24.712,24.712-24.712c1.809,0,3.582,0.19,5.308,0.567v48.29
	C219.629,107.522,217.856,107.712,216.047,107.712z M162.676,181.426c0-16.178,13.162-29.339,29.339-29.339
	c16.178,0,29.339,13.161,29.339,29.339v83.464h-58.679L162.676,181.426L162.676,181.426z M186.551,372.893
	c1.953,1.953,4.512,2.929,7.071,2.929s5.119-0.976,7.071-2.929l48.003-48.003h27.441L150.616,450.412l-5.558-125.522h75.354
	l-33.86,33.86C182.646,362.656,182.646,368.988,186.551,372.893z M165.18,492c-7.137,0-12.975-5.588-13.29-12.716l-0.078-1.784
	l152.61-152.609h57.035L194.358,492H165.18z M346.82,492h-65.103l33.719-33.72c3.905-3.905,3.905-10.237,0-14.142
	c-3.906-3.905-10.236-3.905-14.143,0.001L253.433,492h-30.792l143.241-143.249l-5.773,130.529
	C359.795,486.413,353.957,492,346.82,492z M389.5,304.89h-267v-20h267V304.89z"/>
<g>
</g>
<g>
</g>
<g>
</g>
<g>
</g>
<g>
</g>
<g>
</g>
<g>
</g>
<g>
</g>
<g>
</g>
<g>
</g>
<g>
</g>
<g>
</g>
<g>
</g>
<g>
</g>
<g>
</g>
</svg>
